<svg width="240" height="61" viewBox="0 0 240 61" fill="none" xmlns="http://www.w3.org/2000/svg">
<g clip-path="url(#clip0_4316_809)">
<path fill-rule="evenodd" clip-rule="evenodd" d="M15.1834 11.9039C28.5968 11.8893 42.0103 11.9039 55.4236 11.9478C55.4687 11.9916 55.5139 12.0355 55.559 12.0793C55.6191 12.547 55.6191 13.0148 55.559 13.4825C55.4838 13.5556 55.4086 13.6287 55.3334 13.7018C41.9801 13.7603 28.6269 13.7603 15.2736 13.7018C15.1985 13.6287 15.1232 13.5556 15.0481 13.4825C14.9879 13.0148 14.9879 12.547 15.0481 12.0793C15.1128 12.0316 15.1579 11.9731 15.1834 11.9039Z" fill="#252A32"/>
<path fill-rule="evenodd" clip-rule="evenodd" d="M30.0705 14.623H40.5365C40.5516 16.0558 40.5365 17.4882 40.4914 18.9204C40.3861 19.0227 40.2809 19.125 40.1756 19.2273C38.5516 19.242 36.9275 19.2565 35.3035 19.2712C33.6114 19.2848 31.9272 19.2409 30.2509 19.1396C30.1944 19.0739 30.1493 19.0007 30.1156 18.9204C30.0705 17.4882 30.0554 16.0558 30.0705 14.623Z" fill="#262B32"/>
<path fill-rule="evenodd" clip-rule="evenodd" d="M105.137 16.8154C105.166 17.2678 105.106 17.7063 104.957 18.1309C104.117 19.1904 103.095 19.3803 101.889 18.7009C100.9 17.6458 100.93 16.6226 101.98 15.6314C103.137 14.97 104.114 15.1601 104.912 16.2014C105.039 16.39 105.114 16.5947 105.137 16.8154Z" fill="#252A32"/>
<path fill-rule="evenodd" clip-rule="evenodd" d="M144.024 21.0252C143.922 21.2995 143.847 21.5919 143.799 21.9022C143.725 22.7361 143.739 23.5547 143.844 24.3578H148.175V26.3749H143.754V41.1086H141.408C141.392 34.4433 141.408 27.778 141.453 21.1129C141.558 20.7692 141.603 20.4184 141.588 20.0604C142.661 16.367 145.127 14.9492 148.987 15.807C149.332 15.9601 149.662 16.1355 149.979 16.3332C149.735 16.9739 149.464 17.6024 149.167 18.2187C146.287 17.1289 144.573 18.0644 144.024 21.0252Z" fill="#242931"/>
<path fill-rule="evenodd" clip-rule="evenodd" d="M132.205 15.6755H129.859V35.2327C129.769 28.6992 129.739 22.1509 129.769 15.5878C130.597 15.5591 131.409 15.5884 132.205 15.6755Z" fill="#808388"/>
<path fill-rule="evenodd" clip-rule="evenodd" d="M132.205 15.6753V24.5331H136.716V26.4625H132.205C132.175 29.3424 132.205 32.2072 132.295 35.0571C132.414 36.5028 133.046 37.6868 134.19 38.609C135.349 39.1313 136.507 39.1166 137.663 38.5652C137.969 39.1345 138.226 39.7339 138.43 40.363C138.401 40.4069 138.37 40.4507 138.34 40.4946C134.125 41.9467 131.343 40.6019 129.994 36.4604C129.919 36.0537 129.874 35.6444 129.859 35.2325V15.6753H132.205Z" fill="#232830"/>
<path fill-rule="evenodd" clip-rule="evenodd" d="M105.137 16.8154C105.24 17.1203 105.256 17.4418 105.182 17.7801C105.164 17.9398 105.09 18.0567 104.957 18.1309C105.106 17.7064 105.166 17.2679 105.137 16.8154Z" fill="#AEB0B3"/>
<path fill-rule="evenodd" clip-rule="evenodd" d="M37.8297 23.7437C37.718 23.894 37.6579 24.0694 37.6493 24.2699C36.0484 24.2978 34.4544 24.2686 32.8674 24.1822C32.5188 22.8566 32.1279 21.5411 31.6945 20.2356C34.1005 20.1187 36.5064 20.1187 38.9124 20.2356C38.4954 21.3897 38.1345 22.559 37.8297 23.7437Z" fill="#242931"/>
<path d="M157.45 26.4487C156.547 27.3884 155.921 28.5619 155.573 29.9702C155.504 30.8455 155.475 31.7225 155.483 32.601C156.082 36.1212 158.187 38.2113 161.798 38.8715C164.362 39.0208 166.383 38.3507 167.864 36.8628L169.502 38.5014C167.496 40.4625 164.808 41.3175 161.438 41.0649C157.862 40.5188 155.29 38.6622 153.723 35.4956C153.428 34.7882 153.234 34.0573 153.137 33.3032C153.062 32.311 153.032 31.3165 153.046 30.3208V29.8823C153.174 29.7056 153.235 29.5015 153.227 29.269V29.1811C153.417 28.8301 153.538 28.4496 153.588 28.0405C154.129 26.7402 154.845 25.6384 155.736 24.7348L157.45 26.4487ZM160.806 22.0336C165.587 21.3976 169.151 23.1074 171.497 27.1635C172.559 29.328 172.815 31.5792 172.265 33.9165C172.081 34.3059 171.931 34.7159 171.814 35.145C171.506 35.8043 171.163 36.4085 170.787 36.9585L169.079 35.2504C169.286 34.8908 169.476 34.5052 169.648 34.0922C169.64 33.8597 169.7 33.6547 169.828 33.478V33.3911C169.978 32.4329 170.039 31.4677 170.009 30.4965C169.858 29.6876 169.601 28.898 169.242 28.1284C167.268 24.8388 164.366 23.6253 160.535 24.4887C159.992 24.6909 159.492 24.9306 159.033 25.2036L157.296 23.4672C158.311 22.813 159.481 22.3351 160.806 22.0336Z" fill="#242931"/>
<path d="M198 21.9912C200.344 22.3085 202.428 23.3313 204.25 25.0596C205.147 26.2503 205.779 27.5658 206.144 29.0059C206.292 32.2467 206.322 35.4922 206.234 38.7412C206.211 40.5342 205.79 42.2295 204.971 43.8271C203.789 45.6463 202.12 46.8302 199.964 47.3789C196.377 48.3162 193.009 47.8492 189.858 45.9766C188.563 45.0234 187.631 43.81 187.061 42.3369C187.837 42.1641 188.65 42.1052 189.498 42.1611C190.826 44.2256 192.75 45.3801 195.272 45.625C197.604 45.884 199.739 45.3877 201.678 44.1348C203.094 42.918 203.785 41.3828 203.753 39.5303C203.872 38.784 203.872 38.0239 203.753 37.25C203.681 37.29 203.651 37.3484 203.663 37.4248C201.978 39.1193 200.091 40.1407 198 40.4902V38.3418C200.608 37.9139 202.436 36.5274 203.482 34.1807C203.502 33.8597 203.592 33.5671 203.753 33.3037V33.2158C203.9 32.228 203.96 31.2334 203.933 30.2334C203.821 29.5699 203.626 28.9269 203.347 28.3047C202.076 25.9801 200.294 24.6374 198 24.2764V21.9912ZM196 24.2002C195.675 24.2225 195.342 24.261 195.002 24.3145C192.47 24.8995 190.695 26.3462 189.678 28.6553C189.61 29.0295 189.489 29.3806 189.317 29.708C188.779 31.9872 189.215 34.0629 190.626 35.9346C192.149 37.5232 193.94 38.3656 196 38.4648V40.6221C195.183 40.5975 194.339 40.4823 193.467 40.2754C188.521 38.482 186.28 35.0178 186.746 29.8828C186.785 29.6755 186.831 29.4712 186.881 29.2695C187.072 28.9186 187.191 28.538 187.242 28.1289C188.679 24.6723 191.296 22.6116 195.091 21.9463C195.398 21.9173 195.701 21.8983 196 21.8896V24.2002Z" fill="#252931"/>
<path fill-rule="evenodd" clip-rule="evenodd" d="M229.828 30.4966V31.6367H212.956C212.932 31.777 212.962 31.8939 213.046 31.9875C213.305 35.8494 215.38 38.1735 219.272 38.9597C221.53 39.0856 223.545 38.4717 225.317 37.118C226.056 36.3369 226.718 35.5037 227.302 34.6186C227.948 34.9178 228.579 35.2393 229.196 35.5833C228.425 37.5188 227.072 38.9951 225.136 40.0121C222.283 41.2961 219.366 41.4423 216.384 40.4507C214.509 39.6644 213.05 38.422 212.009 36.7234C211.189 35.4306 210.723 34.0274 210.61 32.5137C210.583 31.426 210.643 30.3444 210.791 29.2688C211.735 25.588 214.081 23.2055 217.828 22.1212C223.037 21.2106 226.812 23.0377 229.151 27.6025C229.509 28.5401 229.735 29.5048 229.828 30.4966ZM227.211 29.2688C226.085 25.9195 223.694 24.224 220.039 24.1822C216.7 24.3144 214.52 25.9223 213.497 29.0057C213.482 29.2128 213.451 29.4174 213.407 29.6196H227.211V29.2688Z" fill="#242931"/>
<path d="M71.4812 26.4814C70.6084 27.3967 70.0062 28.5296 69.6785 29.8828C69.6084 30.8166 69.5787 31.7524 69.5886 32.6894C69.6299 33.2556 69.7349 33.8111 69.904 34.3555C71.0219 36.9232 72.9922 38.4582 75.8142 38.96C78.4462 39.1307 80.5177 38.4868 82.032 37.0322L83.6716 38.6719C82.251 39.9557 80.415 40.784 78.1599 41.1523C74.7413 41.3901 71.9444 40.2356 69.7693 37.6885C69.7639 37.6408 69.7332 37.6115 69.6785 37.6006C69.5882 40.991 69.5586 44.382 69.5886 47.7734H67.2429C67.2002 41.6909 67.2458 35.6105 67.3787 29.5322C67.805 27.5974 68.6135 26.0215 69.8054 24.8057L71.4812 26.4814ZM74.6414 22.209C79.9437 21.3146 83.7787 23.1999 86.1453 27.8652C86.8075 29.6271 87.0027 31.4399 86.7312 33.3027C86.6031 33.4794 86.5424 33.6844 86.5505 33.917C86.1749 35.1569 85.6572 36.2412 84.9998 37.1719L83.2771 35.4492C83.5979 34.9118 83.8785 34.3142 84.115 33.6543C84.1069 33.4217 84.1675 33.2167 84.2956 33.04C84.7197 30.4929 84.0427 28.2713 82.2654 26.375C79.924 24.2746 77.2317 23.7047 74.1902 24.665C73.7883 24.8337 73.4127 25.0242 73.0613 25.2334L71.3748 23.5469C72.3121 22.9586 73.4012 22.5129 74.6414 22.209Z" fill="#252A32"/>
<path fill-rule="evenodd" clip-rule="evenodd" d="M141.588 20.0605C141.603 20.4185 141.558 20.7693 141.453 21.113C141.408 27.7781 141.392 34.4434 141.408 41.1087C141.302 34.3705 141.288 27.6175 141.363 20.8499C141.4 20.5655 141.475 20.3024 141.588 20.0605Z" fill="#4A4E55"/>
<path fill-rule="evenodd" clip-rule="evenodd" d="M93.4984 29.9706C93.3684 30.5948 93.2927 31.238 93.2728 31.9C93.2277 34.9402 93.2124 37.9805 93.2277 41.0209H90.8819C90.8539 37.2476 90.8837 33.4765 90.9721 29.7075C91.6731 26.2529 93.6878 23.8411 97.0171 22.4722C98.1747 22.1841 99.2574 22.3448 100.265 22.9545C99.8502 23.6153 99.4144 24.2585 98.957 24.8839C98.4355 24.6762 97.9095 24.6615 97.378 24.8401C96.0815 25.4571 95.0737 26.3779 94.3555 27.6027C93.8809 28.329 93.5949 29.1183 93.4984 29.9706Z" fill="#242931"/>
<path d="M117.95 22.3406C120.949 22.1975 123.249 23.3382 124.851 25.7615C125.214 26.4824 125.439 27.2426 125.528 28.0417C125.66 28.7661 125.721 29.497 125.708 30.2341V41.0212H123.543C123.559 37.8346 123.544 34.648 123.498 31.4617C123.482 31.2105 123.437 30.9769 123.363 30.7605C123.376 30.0856 123.346 29.4128 123.273 28.7429C123.292 28.4804 123.231 28.2467 123.092 28.0417C122.799 26.4851 121.867 25.5052 120.295 25.1033C118.698 24.7031 117.104 24.7031 115.513 25.1033C114.036 25.5917 112.969 26.5127 112.31 27.866C112.205 28.5057 112.13 29.149 112.084 29.7957C111.959 30.2138 111.898 30.6524 111.904 31.1111C111.815 34.4117 111.786 37.7152 111.814 41.0212H109.468C109.453 37.3669 109.468 33.7124 109.513 30.0583C109.648 29.3594 109.753 28.6579 109.829 27.9539C109.985 26.9878 110.36 26.1107 110.956 25.323C112.775 23.2179 115.106 22.2233 117.95 22.3406Z" fill="#232830"/>
<path fill-rule="evenodd" clip-rule="evenodd" d="M179.212 28.4794C179.003 28.7938 178.883 29.1446 178.851 29.5318V29.7072C178.648 30.5014 178.543 31.32 178.535 32.1628C178.49 35.1153 178.475 38.0679 178.49 41.0206H176.144C176.118 37.2191 176.148 33.4187 176.234 29.6195C176.363 29.4428 176.423 29.2382 176.415 29.0056C177.285 25.7195 179.36 23.5123 182.64 22.3842C183.638 22.2102 184.571 22.3711 185.437 22.8666C185.529 22.9106 185.545 22.969 185.482 23.042C185.095 23.6046 184.719 24.1746 184.355 24.7521C184.055 24.7675 183.755 24.7528 183.452 24.7083C182.588 24.807 181.836 25.1431 181.197 25.7168C180.337 26.5076 179.676 27.4285 179.212 28.4794Z" fill="#232830"/>
<path fill-rule="evenodd" clip-rule="evenodd" d="M144.024 21.0249C143.875 22.1298 143.815 23.2406 143.844 24.3575C143.739 23.5545 143.725 22.7359 143.799 21.9019C143.847 21.5916 143.922 21.2992 144.024 21.0249Z" fill="#C8C9CB"/>
<path fill-rule="evenodd" clip-rule="evenodd" d="M102.07 22.7788V41.0206H104.325V22.7788C104.416 28.8738 104.445 34.9837 104.416 41.1083H101.98C101.95 34.9837 101.98 28.8738 102.07 22.7788Z" fill="#555A5F"/>
<path d="M104.325 22.7788H102.07V41.0206H104.325V22.7788Z" fill="#232830"/>
<path fill-rule="evenodd" clip-rule="evenodd" d="M37.8298 23.7437C37.8141 23.9507 37.784 24.1553 37.7396 24.3576C36.0827 24.4148 34.4586 24.3564 32.8674 24.1822C34.4545 24.2686 36.0485 24.2978 37.6493 24.2699C37.6579 24.0694 37.7181 23.894 37.8298 23.7437Z" fill="#D0D1D3"/>
<path fill-rule="evenodd" clip-rule="evenodd" d="M132.205 15.6753C132.295 18.5836 132.325 21.507 132.295 24.4454C133.785 24.4164 135.258 24.4457 136.716 24.5331H132.205V15.6753Z" fill="#808387"/>
<path fill-rule="evenodd" clip-rule="evenodd" d="M37.2885 25.4101C36.6598 25.2933 35.9981 25.2349 35.3035 25.2347C34.609 25.2349 33.9473 25.2933 33.3186 25.4101C33.237 25.3479 33.207 25.2602 33.2283 25.147H37.3787C37.4001 25.2602 37.37 25.3479 37.2885 25.4101Z" fill="#B4B5B8"/>
<path fill-rule="evenodd" clip-rule="evenodd" d="M37.2884 25.4103C36.9729 26.3309 36.6721 27.2664 36.3861 28.2167C36.3388 28.2774 36.2786 28.3212 36.2057 28.3482C35.5741 28.4067 34.9425 28.4067 34.311 28.3482C34.2658 28.3044 34.2207 28.2605 34.1756 28.2167C33.8387 27.2949 33.553 26.3594 33.3185 25.4103C33.9472 25.2935 34.6089 25.2351 35.3034 25.2349C35.998 25.2351 36.6597 25.2935 37.2884 25.4103Z" fill="#242931"/>
<path fill-rule="evenodd" clip-rule="evenodd" d="M136.716 26.4624C135.258 26.5498 133.785 26.579 132.295 26.5501V35.0571C132.205 32.2071 132.175 29.3423 132.205 26.4624H136.716Z" fill="#8D9094"/>
<path fill-rule="evenodd" clip-rule="evenodd" d="M153.588 28.041C153.538 28.4501 153.418 28.8301 153.227 29.1811C153.278 28.772 153.398 28.392 153.588 28.041Z" fill="#595D63"/>
<path fill-rule="evenodd" clip-rule="evenodd" d="M187.242 28.1289C187.191 28.538 187.071 28.918 186.881 29.269C186.932 28.8599 187.052 28.4799 187.242 28.1289Z" fill="#676A70"/>
<path fill-rule="evenodd" clip-rule="evenodd" d="M123.092 28.041C123.231 28.2461 123.292 28.48 123.273 28.7426C123.158 28.5317 123.098 28.2978 123.092 28.041Z" fill="#8C8F93"/>
<path fill-rule="evenodd" clip-rule="evenodd" d="M179.212 28.4795C179.143 28.8537 179.023 29.2045 178.851 29.5319C178.883 29.1447 179.003 28.7939 179.212 28.4795Z" fill="#B7B9BC"/>
<path fill-rule="evenodd" clip-rule="evenodd" d="M189.678 28.6548C189.609 29.029 189.489 29.3798 189.317 29.7072C189.349 29.32 189.469 28.9692 189.678 28.6548Z" fill="#BFC0C3"/>
<path fill-rule="evenodd" clip-rule="evenodd" d="M54.4311 49.1768C54.5634 49.1025 54.6386 48.9856 54.6567 48.826C54.7299 48.4586 54.7149 48.1078 54.6116 47.7736C54.3458 46.7115 53.654 46.083 52.5364 45.888C40.8974 45.8588 29.2584 45.8295 17.6194 45.8003C16.5205 45.5354 15.7385 44.9068 15.2736 43.9148C15.0364 43.0642 15.0364 42.2163 15.2736 41.3714C15.7594 40.3011 16.6014 39.6727 17.7999 39.4859C29.4389 39.4567 41.0779 39.4274 52.7169 39.3982C54.1045 39.014 54.7511 38.1225 54.6567 36.7233C54.4003 35.7725 53.7838 35.1732 52.8071 34.9254C46.9124 34.8962 41.0177 34.8669 35.123 34.8377C35.0479 34.7647 34.9726 34.6915 34.8975 34.6185C34.8524 32.8647 34.8373 31.1107 34.8524 29.3564H35.7546C35.7395 30.7892 35.7546 32.2216 35.7997 33.6538C35.8335 33.7341 35.8786 33.8073 35.935 33.873C41.4989 33.9022 47.0627 33.9315 52.6266 33.9607C55.1237 34.6203 56.0109 36.1551 55.2883 38.565C54.737 39.5674 53.8798 40.1667 52.7169 40.3629C41.0478 40.3921 29.3787 40.4214 17.7097 40.4506C15.9676 41.1621 15.5014 42.3461 16.3112 44.0025C16.6633 44.4732 17.1295 44.7802 17.7097 44.9233C29.4716 44.9242 41.2309 44.9827 52.9875 45.0987C54.5979 45.4816 55.4701 46.4756 55.604 48.0805C55.5412 49.7479 54.6991 50.8295 53.0777 51.3255C40.4463 51.384 27.8148 51.384 15.1834 51.3255C14.9427 51.0624 15.1834 50.5362 15.1834 50.5362C27.6946 50.507 40.2057 50.4777 52.7169 50.4485C53.4844 50.2723 54.0558 49.8483 54.4311 49.1768Z" fill="#272C34"/>
<path fill-rule="evenodd" clip-rule="evenodd" d="M176.415 29.0059C176.423 29.2384 176.363 29.443 176.234 29.6198C176.226 29.3872 176.287 29.1826 176.415 29.0059Z" fill="#717479"/>
<path fill-rule="evenodd" clip-rule="evenodd" d="M213.497 29.0059C213.482 29.2129 213.451 29.4175 213.407 29.6198H227.211V29.269C227.297 29.3934 227.327 29.5395 227.302 29.7075C222.61 29.7367 217.918 29.7075 213.227 29.6198C213.301 29.3991 213.392 29.1944 213.497 29.0059Z" fill="#8E9095"/>
<path fill-rule="evenodd" clip-rule="evenodd" d="M153.227 29.269C153.235 29.5016 153.175 29.7062 153.047 29.8829C153.039 29.6504 153.099 29.4458 153.227 29.269Z" fill="#71747A"/>
<path fill-rule="evenodd" clip-rule="evenodd" d="M90.9721 29.7075C90.8836 33.4765 90.8539 37.2477 90.8818 41.0209C90.7772 37.3523 90.7618 33.6689 90.8367 29.9706C90.8575 29.8621 90.9026 29.7744 90.9721 29.7075Z" fill="#4A4E55"/>
<path fill-rule="evenodd" clip-rule="evenodd" d="M176.235 29.6196C176.148 33.4188 176.118 37.2192 176.144 41.0207C176.04 37.3813 176.024 33.7271 176.099 30.0581C176.117 29.8931 176.162 29.747 176.235 29.6196Z" fill="#54585E"/>
<path fill-rule="evenodd" clip-rule="evenodd" d="M112.085 29.7949C112.09 30.2537 112.03 30.6922 111.904 31.1104C111.899 30.6517 111.959 30.2132 112.085 29.7949Z" fill="#96999D"/>
<path fill-rule="evenodd" clip-rule="evenodd" d="M203.933 30.2334C204.038 30.9195 204.052 31.6211 203.978 32.3382C203.965 32.6568 203.89 32.9491 203.753 33.2152C203.9 32.2274 203.96 31.2334 203.933 30.2334Z" fill="#54585E"/>
<path fill-rule="evenodd" clip-rule="evenodd" d="M210.791 29.269C210.643 30.3446 210.583 31.4262 210.61 32.514C210.505 31.7694 210.491 31.0093 210.565 30.2338C210.603 29.8924 210.678 29.5709 210.791 29.269Z" fill="#65686E"/>
<path fill-rule="evenodd" clip-rule="evenodd" d="M125.709 30.2334C125.799 33.8434 125.829 37.4684 125.799 41.1083H123.363V30.7596C123.437 30.9761 123.482 31.2099 123.498 31.4612C123.543 34.6476 123.559 37.834 123.543 41.0206H125.709V30.2334Z" fill="#494D54"/>
<path fill-rule="evenodd" clip-rule="evenodd" d="M170.009 30.4966C170.114 31.1827 170.128 31.8843 170.054 32.6014C170.036 32.8905 169.96 33.1537 169.828 33.3907C169.978 32.4325 170.039 31.4678 170.009 30.4966Z" fill="#707378"/>
<path fill-rule="evenodd" clip-rule="evenodd" d="M125.528 28.041C125.584 28.0508 125.629 28.08 125.664 28.1287C125.748 28.6815 125.809 29.237 125.844 29.795C125.919 33.581 125.904 37.3521 125.799 41.1084C125.829 37.4686 125.799 33.8436 125.709 30.2335C125.721 29.4963 125.661 28.7654 125.528 28.041Z" fill="#CBCCCE"/>
<path fill-rule="evenodd" clip-rule="evenodd" d="M229.828 30.4966C229.917 30.8886 229.947 31.2979 229.918 31.7244H213.046V31.9875C212.962 31.8938 212.932 31.7769 212.956 31.6367H229.828V30.4966Z" fill="#8E9094"/>
<path fill-rule="evenodd" clip-rule="evenodd" d="M155.573 29.9707C155.504 30.8461 155.475 31.7231 155.483 32.6017C155.422 32.2521 155.393 31.8867 155.393 31.5055C155.374 30.972 155.435 30.4604 155.573 29.9707Z" fill="#B3B5B8"/>
<path fill-rule="evenodd" clip-rule="evenodd" d="M69.6791 29.8828C69.609 30.8166 69.579 31.7522 69.5889 32.6892C69.5288 32.3104 69.4988 31.9157 69.4987 31.5053C69.4796 30.9428 69.5397 30.4019 69.6791 29.8828Z" fill="#C5C7C9"/>
<path fill-rule="evenodd" clip-rule="evenodd" d="M93.4984 29.9707C93.3621 33.666 93.2719 37.3494 93.2277 41.021C93.2124 37.9806 93.2277 34.9403 93.2728 31.9001C93.2927 31.2381 93.3684 30.5949 93.4984 29.9707Z" fill="#B2B4B7"/>
<path fill-rule="evenodd" clip-rule="evenodd" d="M153.047 30.3213C153.032 31.317 153.062 32.311 153.137 33.3031C153.066 33.2059 153.021 33.0889 153.002 32.9523C152.928 32.06 152.942 31.1829 153.047 30.3213Z" fill="#54585E"/>
<path fill-rule="evenodd" clip-rule="evenodd" d="M84.2954 33.04C84.3035 33.2726 84.2431 33.4772 84.115 33.6539C84.1069 33.4214 84.1673 33.2168 84.2954 33.04Z" fill="#6D7075"/>
<path fill-rule="evenodd" clip-rule="evenodd" d="M203.753 33.3032C203.733 33.6244 203.643 33.9167 203.482 34.1802C203.502 33.8591 203.592 33.5668 203.753 33.3032Z" fill="#6A6E73"/>
<path fill-rule="evenodd" clip-rule="evenodd" d="M169.829 33.4785C169.837 33.7111 169.776 33.9157 169.648 34.0924C169.64 33.8598 169.7 33.6552 169.829 33.4785Z" fill="#707378"/>
<path fill-rule="evenodd" clip-rule="evenodd" d="M86.7316 33.3032C86.7397 33.5358 86.6793 33.7404 86.5511 33.9171C86.543 33.6845 86.6035 33.4799 86.7316 33.3032Z" fill="#ABADB0"/>
<path fill-rule="evenodd" clip-rule="evenodd" d="M109.829 27.9536C109.753 28.6578 109.649 29.3594 109.513 30.0584C109.468 33.7125 109.453 37.3667 109.468 41.021H111.814C111.018 41.1081 110.206 41.1374 109.378 41.1087C109.363 37.3667 109.378 33.6248 109.423 29.883C109.497 29.2159 109.632 28.5728 109.829 27.9536Z" fill="#5B5F65"/>
<path fill-rule="evenodd" clip-rule="evenodd" d="M172.265 33.917C172.219 34.3733 172.068 34.7826 171.813 35.1448C171.931 34.7157 172.081 34.3064 172.265 33.917Z" fill="#B3B4B7"/>
<path fill-rule="evenodd" clip-rule="evenodd" d="M178.851 29.7075C178.742 30.5515 178.667 31.3993 178.625 32.2508C178.61 35.1891 178.565 38.1124 178.49 41.0209C178.475 38.0682 178.49 35.1156 178.535 32.1631C178.543 31.3203 178.648 30.5017 178.851 29.7075Z" fill="#9B9DA1"/>
<path fill-rule="evenodd" clip-rule="evenodd" d="M203.753 39.5297C203.783 38.812 203.752 38.1104 203.663 37.4249C203.651 37.3481 203.681 37.2896 203.753 37.2495C203.872 38.0235 203.872 38.7835 203.753 39.5297Z" fill="#AFB1B4"/>
<path fill-rule="evenodd" clip-rule="evenodd" d="M69.7694 37.6883C69.7092 41.0501 69.6491 44.412 69.5889 47.7739C69.5589 44.3823 69.5889 40.9912 69.6791 37.6006C69.7339 37.6115 69.7639 37.6407 69.7694 37.6883Z" fill="#75787D"/>
<path fill-rule="evenodd" clip-rule="evenodd" d="M189.497 42.1608C188.649 42.1048 187.837 42.1633 187.061 42.3362C186.973 42.3089 186.913 42.2504 186.881 42.1608C187.768 42.0447 188.639 42.0447 189.497 42.1608Z" fill="#53575D"/>
<path fill-rule="evenodd" clip-rule="evenodd" d="M15.2736 41.3716C15.0364 42.2165 15.0364 43.0643 15.2736 43.9149C15.157 43.7972 15.0818 43.651 15.0481 43.4764C14.9879 42.921 14.9879 42.3655 15.0481 41.8101C15.0818 41.6355 15.157 41.4893 15.2736 41.3716Z" fill="#54575E"/>
<path fill-rule="evenodd" clip-rule="evenodd" d="M54.6116 47.7739C54.7149 48.1082 54.73 48.459 54.6567 48.8263C54.6387 48.9859 54.5634 49.1029 54.4312 49.1771C54.5831 48.7232 54.6432 48.2555 54.6116 47.7739Z" fill="#7B7E83"/>
</g>
<defs>
<clipPath id="clip0_4316_809">
<rect width="240" height="61" fill="white"/>
</clipPath>
</defs>
</svg>
